<svg width="14" height="14" viewBox="0 0 14 14" fill="none" xmlns="http://www.w3.org/2000/svg">
<path d="M8.75004 12.8333V10.5C8.8312 9.76925 8.62167 9.03591 8.16671 8.45833C9.91671 8.45833 11.6667 7.29167 11.6667 5.25C11.7134 4.52083 11.5092 3.80333 11.0834 3.20833C11.2467 2.5375 11.2467 1.8375 11.0834 1.16667C11.0834 1.16667 10.5 1.16667 9.33338 2.04167C7.79338 1.75 6.20671 1.75 4.66671 2.04167C3.50004 1.16667 2.91671 1.16667 2.91671 1.16667C2.74171 1.8375 2.74171 2.5375 2.91671 3.20833C2.49197 3.80093 2.28582 4.52246 2.33338 5.25C2.33338 7.29167 4.08338 8.45833 5.83338 8.45833C5.60588 8.74417 5.43671 9.07083 5.33754 9.42083C5.23838 9.77083 5.20921 10.1383 5.25004 10.5V12.8333" stroke="#0A0A0A" stroke-width="1.16667" stroke-linecap="round" stroke-linejoin="round"/>
<path d="M5.24996 10.5C2.61913 11.6667 2.33329 9.33333 1.16663 9.33333" stroke="#0A0A0A" stroke-width="1.16667" stroke-linecap="round" stroke-linejoin="round"/>
</svg>
